# xmcd CD database file
#
# Track frame offsets:
#	150
#	22425
#	38363
#	59615
#	77423
#	96421
#	112454
#	123537
#	151333
#	174125
#	202284
#
# Disc length: 2800 seconds
#
# Revision: 0
# Processed by: cddbd v1.5.1PL2 Copyright (c) Steve Scherf et al.
# Submitted via: CDex 1.51
#
DISCID=9a0aee0b
DTITLE=來々 - Birth
DYEAR=2005
DGENRE=Japanese Pop
TTITLE0=a witch
TTITLE1=Birth
TTITLE2=Mr...
TTITLE3=大切な人
TTITLE4=7inchの欠片
TTITLE5=Leave me alone
TTITLE6=Letter
TTITLE7=precious thing
TTITLE8=紫蔓穂
TTITLE9=罪と罰
TTITLE10=The late night street
EXTD=YEAR: 2005
EXTT0=
EXTT1=
EXTT2=
EXTT3=
EXTT4=
EXTT5=
EXTT6=
EXTT7=
EXTT8=
EXTT9=
EXTT10=
PLAYORDER=
